<?xml version="1.0" encoding="UTF-8" standalone="no"?>
<!DOCTYPE svg PUBLIC "-//W3C//DTD SVG 1.1//EN" "http://www.w3.org/Graphics/SVG/1.1/DTD/svg11.dtd">
<svg width="100%" height="100%" viewBox="0 0 32 32" version="1.1" xmlns="http://www.w3.org/2000/svg" xmlns:xlink="http://www.w3.org/1999/xlink" xml:space="preserve" xmlns:serif="http://www.serif.com/" style="fill-rule:evenodd;clip-rule:evenodd;stroke-linejoin:round;stroke-miterlimit:1.41421;">
    <g transform="matrix(1,0,0,1,0,16)">
        <path d="M16,-14C16.945,-14 19.991,-6.008 20.755,-5.425C21.52,-4.841 29.698,-4.268 29.99,-3.324C30.282,-2.381 23.987,3.132 23.694,4.076C23.403,5.019 26.093,13.365 25.328,13.949C24.564,14.532 16.945,9.947 16,9.947C15.056,9.947 7.436,14.532 6.672,13.948C5.907,13.364 8.598,5.019 8.306,4.075C8.014,3.131 1.718,-2.381 2.01,-3.325C2.302,-4.269 10.48,-4.842 11.244,-5.425C12.009,-6.009 15.055,-14.001 16,-14.001L16,-14Z" style="fill:rgb(0,130,201);fill-rule:nonzero;"/>
    </g>
</svg>
